<?xml version="1.0" encoding="UTF-8"?>
<svg width="198px" height="217px" viewBox="0 0 198 217" version="1.1" xmlns="http://www.w3.org/2000/svg" xmlns:xlink="http://www.w3.org/1999/xlink">
    <!-- Generator: Sketch 49.3 (51167) - http://www.bohemiancoding.com/sketch -->
    <title>logo_icon</title>
    <desc>Created with Sketch.</desc>
    <defs>
        <linearGradient x1="50%" y1="12.261578%" x2="50%" y2="104.557122%" id="linearGradient-1">
            <stop stop-color="#11B6E5" offset="0%"></stop>
            <stop stop-color="#1185E5" offset="100%"></stop>
        </linearGradient>
    </defs>
    <g id="Logo" stroke="none" stroke-width="1" fill="none" fill-rule="evenodd">
        <g id="Group-7-Copy-11" transform="translate(-8.000000, -7.000000)">
            <g id="Group-3-Copy">
                <g id="Group-Copy-10" fill="url(#linearGradient-1)">
                    <path d="M141.94543,88.9483052 L205.101025,88.9483052 L205.101025,124.770146 C205.101025,150.930159 191.084063,175.084598 168.371136,188.064167 L106.564946,223.384038 L44.7587552,188.064167 C25.6481059,177.143162 12.6937946,158.31087 9.06538883,137.029182 L80.9541574,137.029182 L75.9092763,162.240466 L137.220615,162.240466 L126.82051,110.266989 C134.214188,105.338153 139.701403,97.7875694 141.94543,88.9483052 Z M142.879596,76.3483055 C141.04856,57.956746 125.488793,43.5928205 106.564946,43.5928205 C86.4093996,43.5928205 70.0701012,59.8874096 70.0701012,79.9878039 C70.0701012,92.6147339 76.5180236,103.739792 86.3093821,110.266986 L83.4754689,124.429182 L8.02886577,124.429182 L8.02886577,19.5897366 C8.02886577,13.1478874 13.2510164,7.92573679 19.6928656,7.92573679 L193.437026,7.92573679 C199.878875,7.92573679 205.101025,13.1478874 205.101025,19.5897366 L205.101025,76.3483055 L142.879596,76.3483055 Z" id="Combined-Shape"></path>
                </g>
                <path d="M99.264795,103.863201 C88.6531749,100.893927 80.870101,91.1522903 80.870101,79.5928195 C80.870101,65.6752442 92.152525,54.3928202 106.0701,54.3928202 C119.987676,54.3928202 131.2701,65.6752442 131.2701,79.5928195 C131.2701,90.529442 124.303166,99.8388499 114.565323,103.325018 L124.0701,149.792818 L89.8701007,149.792818 L99.264795,103.863201 Z" id="Combined-Shape" fill="#FFFFFF"></path>
            </g>
        </g>
    </g>
</svg>